<?xml version="1.0" encoding="utf-8" ?><svg xmlns="http://www.w3.org/2000/svg" xmlns:xlink="http://www.w3.org/1999/xlink" width="2048" height="2048" viewBox="0 0 2048 2048"><path fill="white" d="M0 0L2048 0L2048 2048L0 2048L0 1097.61L0 1092.96L0 0Z"/><path fill="#22272F" d="M0 1092.96C0.409168 1091.83 1.57788 1088.39 2.64757 1088.33C22.478 1087.28 57.3313 1085.75 75.6749 1084.72C73.5443 1104.15 71.5733 1123.49 54.5843 1136.14C47.4204 1141.56 38.342 1143.79 29.4804 1142.32C5.37574 1138.32 3.90461 1116.79 0 1097.61L0 1092.96Z"/><path fill="#B3B0AD" d="M1813.04 907.34C1814.01 907.271 1814.97 907.212 1815.94 907.165C1840.27 906.096 1864.01 914.826 1881.85 931.399C1930.03 976.181 1917.54 1059.36 1875.54 1104.12C1852.53 1128.3 1820.94 1142.48 1787.58 1143.6C1762.84 1144.25 1751.83 1137.29 1734.64 1121.13C1731.74 1142.26 1726.96 1166.79 1723.38 1188.15C1722.84 1190.83 1722.19 1193.47 1721.42 1196.09C1715.88 1215.53 1700.02 1230.03 1679 1222.96C1671.44 1220.42 1665.27 1214.87 1661.94 1207.62C1655.95 1194.64 1665.9 1153.98 1668.62 1138.42L1685.71 1040.2L1697.81 971.177C1701.52 950.083 1702.8 919.584 1726.87 910.611C1748.83 902.422 1762.08 910.599 1770.44 931.427C1785.11 917.518 1792.96 911.234 1813.04 907.34Z"/><path fill="white" d="M1799.09 973.283C1871.26 968.73 1856.35 1057.68 1802.19 1077.53C1765.1 1085.19 1744.85 1068.16 1754.6 1029.33C1761.76 1000.83 1764.45 980.06 1799.09 973.283Z"/><path fill="#A3493B" d="M1073.05 821.239C1075.21 821.124 1077.38 821.201 1079.52 821.468C1087.14 822.411 1094.11 827.039 1098.51 833.25C1102.28 838.472 1104.34 844.734 1104.4 851.174C1104.44 863.525 1096.94 901.942 1094.36 916.92L1072.44 1046.34C1061.9 1046.62 1021.02 1048.5 1012.95 1046.48C1002.75 1035.01 1033.47 985.263 995.535 974.78C960.084 964.985 937.052 990.255 926.803 1020.71C923.886 1032.5 923.084 1037.7 923.316 1049.82L860.873 1050.78C863.002 1004.78 868.827 972.196 903.211 938.241C934.104 907.734 997.6 891.782 1030.48 926.928C1032.84 906.393 1036.82 885.736 1040.42 865.382C1044.23 843.819 1048.73 826.081 1073.05 821.239Z"/><path fill="#22272F" d="M456.489 907.358C501.425 902.413 539.471 937.36 547.623 980.204C552.355 1000.85 541.578 1025.45 521.027 1033.55C493.124 1044.55 457.171 1049.06 427.5 1053.91C402.57 1057.36 363.788 1057.89 338.065 1058.49C331.213 989.652 363.772 926.208 434.612 910.738C442.004 909.124 448.981 908.208 456.489 907.358Z"/><path fill="white" d="M446.537 966.3C462.673 965.768 478.635 969.954 480.543 988.608C481.808 1000.97 470.27 1000.03 461.501 1001C454.772 1001.75 447.965 1002.14 441.217 1002.84C430.257 1003.47 418.926 1004.68 407.916 1005.54C414.254 981.094 419.899 969.942 446.537 966.3Z"/><path fill="#22272F" d="M143.805 908.36C169.434 906.376 198.709 916.788 213.142 939.078C230.957 966.591 225.216 991.75 220.057 1021.85C217.723 1036.1 215.183 1050.31 212.438 1064.48C191.647 1066.29 167.695 1066.68 146.489 1067.92C146.983 1058.47 150.994 1035.83 153.494 1025.59C160.767 995.783 158.598 971.963 120.577 972.932C110.274 973.195 101.301 980.985 94.7031 989.263C87.9853 1001.52 80.7937 1053.59 77.8699 1070.22C56.0403 1071.99 32.7151 1072.61 10.7374 1073.54C12.5106 1052.68 18.7237 1023.9 22.3192 1003.09C25.4327 985.068 31.2439 937.999 40.5959 925.669C46.9327 917.264 56.4607 911.85 66.9251 910.71C85.2208 908.863 93.9744 917.359 95.512 934.535C110.205 916.989 120.822 910.951 143.805 908.36Z"/><path fill="#A3493B" d="M764.105 907.377C789.459 904.927 811.071 911.619 830.079 928.65C845.4 942.377 857.878 964.099 858.558 984.942C858.95 997.869 854.102 1010.41 845.115 1019.71C821.642 1044.46 779.414 1044.99 748.308 1045.87C716.851 1046.09 684.712 1047.5 653.053 1047.87C650.919 973.093 686.909 917.155 764.105 907.377Z"/><path fill="white" d="M753.62 966.266C764.337 965.252 772.905 965.379 782.61 970.649C793.13 976.362 799.742 998.004 783.024 1000.01C774.462 1001.04 765.782 1001.72 757.163 1002.24C745.882 1003.49 731.758 1004.6 720.397 1005.51C725.449 984.1 730.54 971.776 753.62 966.266Z"/><path fill="#B3B0AD" d="M1986.37 820.136C2008.94 818.563 2024.11 832.604 2022.09 855.25C2020.85 869.2 2017.43 884.734 2014.99 898.574L1997.51 998.619C1994.1 1017.71 1990.24 1036.76 1987.78 1055.99C1984.98 1077.88 1999.82 1082.81 2017.2 1088.03C2027.38 1111.97 2022.35 1140.33 1992.77 1145.06C1963.34 1144.95 1936.58 1131.83 1924.42 1103.69C1914.71 1081.23 1921.07 1058.1 1925.03 1035.18C1927.77 1019.37 1930.68 1003.53 1933.43 987.721L1949.21 898.778C1951.74 884.536 1954.34 870.19 1956.94 855.975C1960.44 836.847 1967.2 826.749 1986.37 820.136Z"/><path fill="#A3493B" d="M1498.65 907.365C1549.79 904.993 1592.15 944.383 1589.52 997.559C1588.47 1013.6 1575.79 1027.41 1560.01 1030C1533.21 1034.39 1502.85 1033.86 1475.65 1034.91C1444.55 1035.64 1413.72 1036.82 1382.6 1037.08C1385.22 965.515 1425.78 913.934 1498.65 907.365Z"/><path fill="white" d="M1486.96 966.191C1502.49 964.91 1518.6 967.103 1523.77 984.001C1528.13 998.291 1517.77 999.681 1506.69 1000.44C1500.14 1000.89 1493.3 1001.76 1486.75 1002.25C1474.99 1003.07 1463.39 1004.63 1451.47 1005.29C1457.85 982.881 1461.48 971.154 1486.96 966.191Z"/><path fill="#A3493B" d="M1135.3 911.204C1145.96 910.613 1157.3 910.865 1168.03 910.884C1198.74 910.936 1229.46 910.449 1260.16 911.155C1274.43 911.483 1287.41 921.206 1289.49 935.468C1293 959.547 1272.58 976.807 1256.86 991.331C1238.52 1008.07 1221.21 1025.85 1203.72 1043.44C1202.56 1043.64 1201.41 1043.83 1200.25 1044.03C1176.57 1044.63 1146.95 1045.75 1123.49 1044.83C1130.54 1035.57 1144.54 1022.22 1153.26 1013.7C1167.79 999.305 1182.62 985.22 1197.75 971.452C1182.22 970.799 1141.31 973.243 1129.92 968.415C1123.42 965.736 1118.33 960.479 1115.87 953.902C1112.77 945.753 1113.03 931.871 1116.88 923.897C1120.45 916.507 1127.91 913.374 1135.3 911.204Z"/><path fill="#A3493B" d="M1101.68 1064.04L1183.47 1063.55L1173.44 1071.51C1170.63 1082.37 1182.8 1074.96 1192 1077.35C1198.49 1079.04 1239.56 1075.36 1242.67 1078.85C1261.27 1079.45 1273.94 1087.17 1275.78 1107.32C1276.63 1116.64 1273.35 1125.57 1267.17 1132.66C1259.84 1141.07 1247.83 1141.9 1237.39 1142.28C1210.06 1142.29 1182.02 1142.38 1154.71 1142.29C1143.39 1142.25 1110.54 1143.08 1101.05 1141.01C1095.65 1139.78 1090.72 1137.04 1086.83 1133.1C1079.8 1125.95 1076.42 1114.67 1076.94 1104.88C1078.15 1081.96 1087.38 1077.33 1101.68 1064.04Z"/><path fill="#FEF8F8" d="M1173.44 1071.51C1170.63 1082.37 1182.8 1074.96 1192 1077.35C1198.49 1079.04 1239.56 1075.36 1242.67 1078.85C1238.24 1079.5 1220.67 1079.14 1215.5 1079.13L1165.09 1079.16C1167.83 1076.49 1170.59 1074.05 1173.44 1071.51Z"/><path fill="#A3493B" d="M1030.52 1065.47C1037.53 1065.32 1074.45 1063.82 1078.08 1065.96C1077.28 1073.89 1065.44 1081.57 1059.99 1089.17C1048.86 1104.67 1050.38 1140.34 1026.2 1142.06C1006.59 1143.46 999.322 1138.8 997.316 1120.09C979.594 1143.25 952.511 1145.66 925.747 1141.87C889.418 1133.82 870.794 1103.61 865.812 1068.93C888.118 1068.89 911.876 1067.95 934.277 1067.41C949.808 1088.63 979.693 1082.39 996.828 1066.08C1008.06 1066.04 1019.29 1065.84 1030.52 1065.47Z"/><path fill="#A3493B" d="M562.889 1069.09L626.623 1068.72C623.043 1084.64 619.882 1104.13 617.538 1120.3C610.74 1167.18 604.448 1203.27 557.494 1225.61C552.82 1227.54 547.972 1229.03 543.017 1230.05C500.158 1238.46 486.306 1203.41 510.774 1170.49C547.952 1164.36 547.458 1149.67 552.894 1117.19C554.851 1105.5 557.87 1079.14 562.889 1069.09Z"/><path fill="#A3493B" d="M1386.44 1057.49C1407.69 1057.23 1428.94 1057.16 1450.19 1057.28C1459.3 1082.57 1486.28 1088.18 1509.52 1080.29C1532 1072.65 1557.81 1060.13 1557.7 1099.64C1557.67 1108.62 1547.67 1118.14 1540.71 1123.73C1526.94 1133.95 1516.45 1140.42 1499.27 1143.89C1472.94 1149.23 1445.57 1143.76 1423.3 1128.72C1400.89 1113.42 1387.5 1091.62 1383.15 1064.98C1382.47 1060.85 1381.69 1060.39 1383.47 1057.84L1386.44 1057.49Z"/><path fill="#A3493B" d="M681.632 1067.49C692.139 1067.28 720.877 1066.06 729.394 1068.03C739.258 1076.3 730.554 1079.37 746.928 1081.89C768.434 1085.2 779.339 1078.01 798.559 1071.55C802.513 1070.22 829.833 1070.46 834.264 1071.78C837.539 1076.79 837.519 1079.77 837.423 1085.74C837.128 1104.19 823.336 1117.35 809.587 1127.57C774.652 1148.25 731.494 1152.58 695.989 1130.92C675.83 1118.46 661.834 1098.11 657.421 1074.82C656.674 1071.07 656.587 1071.04 658.137 1068.55C663.935 1067.26 675.219 1067.54 681.632 1067.49Z"/><path fill="#22272F" d="M415.323 1070.04C434.546 1090.6 461.073 1082.62 483.653 1073.61C494.762 1069.09 515.115 1065.1 519.021 1081.1C526.917 1113.44 491.44 1132.84 467.277 1141.02C420.164 1154.23 367.955 1136.89 346.527 1090.68C344.366 1086.02 341.272 1079.71 343.085 1074.64C347.176 1071.43 395.729 1070.86 404.275 1070.43L415.323 1070.04Z"/><path fill="#22272F" d="M286.113 914.158C308.442 912.631 322.986 924.342 323.65 948.039C324.009 960.874 319.709 977.782 317.467 990.76L305.589 1060.34L279.249 1061.92C270.424 1062.22 248.46 1064.39 241.174 1062.19C238.685 1056.09 253.307 991.552 254.054 979.906C254.907 975.167 255.706 970.057 256.529 965.355C260.753 941.198 260.656 924.822 286.113 914.158Z"/><path fill="#A3493B" d="M606.59 914.107C609.077 913.923 612.003 913.7 614.471 913.889C622.824 914.57 630.504 918.735 635.631 925.365C640.019 931.147 642.654 938.068 643.222 945.305C644.085 956.004 639.264 980.274 637.288 991.673C633.829 1010.72 630.68 1029.81 627.841 1048.96L599.75 1049.77C587.369 1049.85 574.99 1050.12 562.618 1050.59C563.394 1034.09 578.013 942.978 583.379 932.668C588.512 922.804 596.309 917.564 606.59 914.107Z"/><path fill="#A3493B" d="M1337.21 914.144C1340.57 913.67 1345.19 913.238 1348.49 914.072C1382.87 922.76 1371.79 966.001 1367.45 990.886C1364.61 1007.15 1362.05 1022.37 1359.5 1038.13C1351.83 1038.93 1340.95 1038.98 1333.03 1039.25C1320.37 1039.74 1307.7 1039.99 1295.02 1040.01C1296.75 1023.08 1308.36 946.235 1314.19 933.907C1318.73 924.308 1327.39 917.648 1337.21 914.144Z"/><path fill="#A3493B" d="M1311.27 1057.51C1328.11 1057.02 1349.19 1056.8 1365.93 1057.43C1363.4 1074.23 1359.63 1091.22 1357.16 1108.01C1354.79 1124.04 1352.04 1133.49 1337.33 1142.37L1336.66 1142.61C1310.2 1152.39 1292.52 1135.65 1288.92 1110C1286.17 1090.41 1290.73 1075.69 1297.36 1057.78C1302.25 1057.55 1306.44 1057.6 1311.27 1057.51Z"/><path fill="#22272F" d="M290.714 1075.44C295.197 1075.06 300.221 1075.07 304.765 1074.96C312.917 1084.45 311.902 1082.17 324.406 1084.96C334.397 1121.19 325.676 1154.42 280.793 1143.26C251.054 1129.42 238.066 1111.59 238.043 1078.23C254.556 1076.59 273.834 1076.53 290.714 1075.44Z"/><path fill="#B3B0AD" d="M1607.82 1069.17C1663.13 1064.21 1660.4 1131.29 1622.69 1143.32L1620.78 1143.98C1568.22 1154.06 1562.95 1082.9 1607.82 1069.17Z"/><path fill="#22272F" d="M201.953 1079.55C208.194 1079.14 213.924 1079.01 220.178 1078.9C217.632 1114.35 207.141 1167.86 159.641 1135.79C146.823 1124.62 134.742 1106.33 132.994 1089C132.872 1087.8 132.38 1084.87 133.472 1083.84C136.494 1080.98 191.445 1080.14 200.286 1079.66C200.842 1079.63 201.397 1079.59 201.953 1079.55Z"/><path fill="#A3493B" d="M626.642 822.231C676.281 820.208 672.74 885.292 635.499 895.222L632.415 896.03C581.923 899.567 584.099 832.311 626.642 822.231Z"/><path fill="#22272F" d="M308.716 821.238C357.453 822.161 352.594 887.628 309.887 895.476C274.222 896.611 266.993 865.158 282.358 837.608C287.674 828.076 298.223 823.363 308.716 821.238Z"/><path fill="#A3493B" d="M1355.61 822.102C1402.64 817.516 1408.71 880.36 1364.51 895.075C1314.05 901.421 1313.83 834.39 1355.61 822.102Z"/></svg>